<svg width="14" height="14" viewBox="0 0 14 14" fill="none" xmlns="http://www.w3.org/2000/svg">
<path fill-rule="evenodd" clip-rule="evenodd" d="M4.01359 1.764C4.52819 1.72291 5.01672 1.52051 5.40959 1.1856C5.85332 0.807674 6.41713 0.600113 6.99999 0.600113C7.58284 0.600113 8.14666 0.807674 8.59039 1.1856C8.98326 1.52051 9.47178 1.72291 9.98639 1.764C10.5675 1.81045 11.1131 2.06237 11.5254 2.47461C11.9376 2.88686 12.1895 3.43246 12.236 4.0136C12.2768 4.528 12.4792 5.0168 12.8144 5.4096C13.1923 5.85333 13.3999 6.41714 13.3999 7C13.3999 7.58286 13.1923 8.14667 12.8144 8.5904C12.4795 8.98327 12.2771 9.47179 12.236 9.9864C12.1895 10.5675 11.9376 11.1131 11.5254 11.5254C11.1131 11.9376 10.5675 12.1896 9.98639 12.236C9.47178 12.2771 8.98326 12.4795 8.59039 12.8144C8.14666 13.1923 7.58284 13.3999 6.99999 13.3999C6.41713 13.3999 5.85332 13.1923 5.40959 12.8144C5.01672 12.4795 4.52819 12.2771 4.01359 12.236C3.43244 12.1896 2.88684 11.9376 2.4746 11.5254C2.06236 11.1131 1.81043 10.5675 1.76399 9.9864C1.7229 9.47179 1.52049 8.98327 1.18559 8.5904C0.807658 8.14667 0.600098 7.58286 0.600098 7C0.600098 6.41714 0.807658 5.85333 1.18559 5.4096C1.52049 5.01673 1.7229 4.52821 1.76399 4.0136C1.81043 3.43246 2.06236 2.88686 2.4746 2.47461C2.88684 2.06237 3.43244 1.81045 4.01359 1.764ZM9.96559 5.9656C10.1113 5.81472 10.1919 5.61264 10.1901 5.40288C10.1883 5.19312 10.1042 4.99247 9.95584 4.84415C9.80751 4.69582 9.60686 4.61168 9.39711 4.60986C9.18735 4.60804 8.98527 4.68867 8.83439 4.8344L6.19999 7.4688L5.16559 6.4344C5.0147 6.28867 4.81262 6.20804 4.60286 6.20986C4.39311 6.21168 4.19246 6.29582 4.04413 6.44415C3.8958 6.59247 3.81167 6.79312 3.80985 7.00288C3.80802 7.21264 3.88866 7.41472 4.03439 7.5656L5.63439 9.1656C5.78441 9.31558 5.98785 9.39983 6.19999 9.39983C6.41212 9.39983 6.61556 9.31558 6.76559 9.1656L9.96559 5.9656Z" fill="#3B82F6"/>
</svg>
