<svg width="24" height="24" viewBox="0 0 24 24" fill="none" xmlns="http://www.w3.org/2000/svg">
<g id="hero, dokumenta">
<path id="Subtract" fill-rule="evenodd" clip-rule="evenodd" d="M10 4C9.73478 4 9.48043 4.10536 9.29289 4.29289C9.10536 4.48043 9 4.73478 9 5V5.24132L7 6V5C7 4.20435 7.31607 3.44129 7.87868 2.87868C8.44129 2.31607 9.20435 2 10 2H14.586H14.5862C15.1166 2.00011 15.6251 2.21086 16.0001 2.58589L12.2723 4H10ZM12.2725 4H12.2723L9 5.24132V5.24135L7 6H6C5.20435 6 4.44129 6.31607 3.87868 6.87868C3.31607 7.44129 3 8.20435 3 9V19C3 19.7957 3.31607 20.5587 3.87868 21.1213C4.44129 21.6839 5.20435 22 6 22H14C14.7957 22 15.5587 21.6839 16.1213 21.1213C16.6839 20.5587 17 19.7957 17 19V18H18C18.7957 18 19.5587 17.6839 20.1213 17.1213C20.6839 16.5587 21 15.7957 21 15V8.414V8.41379C20.9999 7.88345 20.7891 7.37487 20.4141 6.99989L20.414 6.99979L16.0002 2.586L12.2725 4ZM18 16C18.2652 16 18.5196 15.8946 18.7071 15.7071C18.8946 15.5196 19 15.2652 19 15V8.41421L18.9999 8.41411L14.5859 4.00011L14.5858 4H12.2725L9 5.24135V6V6.64922V9.85078V14V15C9 15.2652 9.10536 15.5196 9.29289 15.7071C9.48043 15.8946 9.73478 16 10 16H11H13.9194H16.4806H18ZM15 18V19C15 19.2652 14.8946 19.5196 14.7071 19.7071C14.5196 19.8946 14.2652 20 14 20H6C5.73478 20 5.48043 19.8946 5.29289 19.7071C5.10536 19.5196 5 19.2652 5 19V9C5 8.73478 5.10536 8.48043 5.29289 8.29289C5.48043 8.10536 5.73478 8 6 8H7V15C7 15.7957 7.31607 16.5587 7.87868 17.1213C8.44129 17.6839 9.20435 18 10 18H15Z" fill="#C4C4C4"/>
</g>
</svg>
