<svg width="24" height="24" viewBox="0 0 24 24" fill="none" xmlns="http://www.w3.org/2000/svg">
<g id="hero, blog">
<path id="Subtract" fill-rule="evenodd" clip-rule="evenodd" d="M5 5C4.73478 5 4.48043 5.10536 4.29289 5.29289C4.10536 5.48043 4 5.73478 4 6V18C4 18.2652 4.10536 18.5196 4.29289 18.7071C4.48043 18.8946 4.73478 19 5 19H16.1716C16.0591 18.6818 16 18.3439 16 18V7.00371L16 7.0017L16 6.99624V6C16 5.73478 15.8946 5.48043 15.7071 5.29289C15.5196 5.10536 15.2652 5 15 5H13H9H5ZM9 3H5C4.20435 3 3.44129 3.31607 2.87868 3.87868C2.31607 4.44129 2 5.20435 2 6V18C2 18.7956 2.31607 19.5587 2.87868 20.1213C3.44129 20.6839 4.20435 21 5 21H19C19.7957 21 20.5587 20.6839 21.1213 20.1213C21.6839 19.5587 22 18.7957 22 18V9C22 8.20435 21.6839 7.44129 21.1213 6.87868C20.5587 6.31607 19.7957 6 19 6H18C18 5.20435 17.6839 4.44129 17.1213 3.87868C16.5587 3.31607 15.7956 3 15 3H13H9ZM20 9C20 8.44771 19.5523 8 19 8H18.1656H18V9V18C18 18.5523 18.4477 19 19 19C19.5523 19 20 18.5523 20 18V9ZM6 8C6 7.44772 6.44772 7 7 7H13C13.5523 7 14 7.44772 14 8V12C14 12.5523 13.5523 13 13 13H7C6.44772 13 6 12.5523 6 12V8ZM8 9V11H12V9H8ZM6 16C6 15.4477 6.44772 15 7 15H13C13.5523 15 14 15.4477 14 16C14 16.5523 13.5523 17 13 17H7C6.44772 17 6 16.5523 6 16Z" fill="#C4C4C4"/>
</g>
</svg>
