<svg width="24" height="24" viewBox="0 0 24 24" fill="none" xmlns="http://www.w3.org/2000/svg">
<g id="hero, partneri">
<path id="Subtract" fill-rule="evenodd" clip-rule="evenodd" d="M10.5858 5.58579C10.9609 5.21071 11.4696 5 12 5C12.5304 5 13.0391 5.21071 13.4142 5.58579C13.7893 5.96086 14 6.46957 14 7C14 7.53043 13.7893 8.03914 13.4142 8.41421C13.0391 8.78929 12.5304 9 12 9C11.4696 9 10.9609 8.78929 10.5858 8.41421C10.2107 8.03914 10 7.53043 10 7C10 6.46957 10.2107 5.96086 10.5858 5.58579ZM12 3C10.9391 3 9.92172 3.42143 9.17157 4.17157C8.42143 4.92172 8 5.93913 8 7C8 8.06087 8.42143 9.07828 9.17157 9.82843C9.92172 10.5786 10.9391 11 12 11C13.0609 11 14.0783 10.5786 14.8284 9.82843C15.5786 9.07828 16 8.06087 16 7C16 5.93913 15.5786 4.92172 14.8284 4.17157C14.0783 3.42143 13.0609 3 12 3ZM4.29289 9.29289C4.48043 9.10536 4.73478 9 5 9C5.26522 9 5.51957 9.10536 5.70711 9.29289C5.89464 9.48043 6 9.73478 6 10C6 10.2652 5.89464 10.5196 5.70711 10.7071C5.51957 10.8946 5.26522 11 5 11C4.73478 11 4.48043 10.8946 4.29289 10.7071C4.10536 10.5196 4 10.2652 4 10C4 9.73478 4.10536 9.48043 4.29289 9.29289ZM5 7C4.20435 7 3.44129 7.31607 2.87868 7.87868C2.31607 8.44129 2 9.20435 2 10C2 10.7956 2.31607 11.5587 2.87868 12.1213C3.44129 12.6839 4.20435 13 5 13C5.79565 13 6.55871 12.6839 7.12132 12.1213C7.68393 11.5587 8 10.7956 8 10C8 9.20435 7.68393 8.44129 7.12132 7.87868C6.55871 7.31607 5.79565 7 5 7ZM18.2929 9.29289C18.4804 9.10536 18.7348 9 19 9C19.2652 9 19.5196 9.10536 19.7071 9.29289C19.8946 9.48043 20 9.73478 20 10C20 10.2652 19.8946 10.5196 19.7071 10.7071C19.5196 10.8946 19.2652 11 19 11C18.7348 11 18.4804 10.8946 18.2929 10.7071C18.1054 10.5196 18 10.2652 18 10C18 9.73478 18.1054 9.48043 18.2929 9.29289ZM19 7C18.2043 7 17.4413 7.31607 16.8787 7.87868C16.3161 8.44129 16 9.20435 16 10C16 10.7957 16.3161 11.5587 16.8787 12.1213C17.4413 12.6839 18.2043 13 19 13C19.7957 13 20.5587 12.6839 21.1213 12.1213C21.6839 11.5587 22 10.7957 22 10C22 9.20435 21.6839 8.44129 21.1213 7.87868C20.5587 7.31607 19.7957 7 19 7ZM11.2523 14.0698C11.4976 14.0231 11.7479 13.9993 12 13.9993C12.2521 13.9993 12.5024 14.0231 12.7477 14.0698C13.1265 14.1414 13.4864 14.2664 13.8193 14.4367C13.9652 14.5112 14.1068 14.5948 14.2434 14.6872C14.4436 14.8227 14.6301 14.9754 14.8011 15.143H14.7996C15.5404 15.869 16 16.8808 16 18C16 18.314 15.9638 18.6196 15.8954 18.9127L15.9034 19H15.874H8.12602H8.09655L8.10461 18.9127C8.03618 18.6196 8 18.314 8 18C8 16.8808 8.45964 15.869 9.20044 15.143H9.1989C9.36992 14.9754 9.55642 14.8227 9.75658 14.6872C9.89317 14.5948 10.0348 14.5112 10.1807 14.4367C10.5136 14.2664 10.8735 14.1414 11.2523 14.0698ZM7.00664 21H16.9934H17.0053H22C22.5523 21 23 20.5523 23 20V18V17.9999C22.9999 17.1686 22.7409 16.358 22.2589 15.6808C21.7768 15.0035 21.0958 14.4932 20.3103 14.2209C19.5249 13.9486 18.6742 13.9278 17.8763 14.1613C17.5422 14.2591 17.2242 14.3995 16.9298 14.5776C16.51 13.9732 15.9804 13.4479 15.3646 13.031C14.3713 12.3587 13.1994 11.9993 12 11.9993C10.8006 11.9993 9.62867 12.3587 8.63543 13.031C8.01963 13.4479 7.49002 13.9732 7.07024 14.5776C6.77575 14.3995 6.45782 14.2591 6.12365 14.1613C5.32584 13.9278 4.47509 13.9486 3.68967 14.2209C2.90425 14.4932 2.22318 15.0035 1.74115 15.6808C1.25911 16.358 1.00006 17.1686 1 17.9999V18V20C1 20.5523 1.44772 21 2 21H6.99474H7.00664ZM5.56183 16.0808C5.79859 16.1501 6.01904 16.2621 6.21295 16.41C6.07383 16.9175 6 17.451 6 18V19H3V18.0001V18C3.00005 17.5844 3.12957 17.1791 3.37057 16.8405C3.61159 16.5019 3.95212 16.2467 4.34483 16.1106C4.73754 15.9744 5.16292 15.964 5.56183 16.0808ZM21 19H18V18C18 17.451 17.9262 16.9175 17.7871 16.41C17.981 16.2621 18.2014 16.1501 18.4382 16.0808C18.8371 15.964 19.2625 15.9744 19.6552 16.1106C20.0479 16.2467 20.3884 16.5019 20.6294 16.8405C20.8704 17.1791 21 17.5844 21 18V18.0001V19Z" fill="#C4C4C4"/>
</g>
</svg>
