<svg width="36" height="36" viewBox="0 0 36 36" fill="none" xmlns="http://www.w3.org/2000/svg">
<circle cx="18" cy="18" r="17" fill="white" stroke="#D1D5DB" stroke-width="2"/>
<path d="M22 13C22 14.0609 21.5786 15.0783 20.8284 15.8284C20.0783 16.5786 19.0609 17 18 17C16.9391 17 15.9217 16.5786 15.1716 15.8284C14.4214 15.0783 14 14.0609 14 13C14 11.9391 14.4214 10.9217 15.1716 10.1716C15.9217 9.42143 16.9391 9 18 9C19.0609 9 20.0783 9.42143 20.8284 10.1716C21.5786 10.9217 22 11.9391 22 13V13Z" stroke="#D1D5DB" stroke-width="2" stroke-linecap="round" stroke-linejoin="round"/>
<path d="M18 20C16.1435 20 14.363 20.7375 13.0503 22.0503C11.7375 23.363 11 25.1435 11 27H25C25 25.1435 24.2625 23.363 22.9497 22.0503C21.637 20.7375 19.8565 20 18 20V20Z" stroke="#D1D5DB" stroke-width="2" stroke-linecap="round" stroke-linejoin="round"/>
</svg>
