<svg
                width="276"
                height="51"
                viewBox="0 0 276 51"
                fill="none"
                xmlns="http://www.w3.org/2000/svg"
              >
                <g clip-path="url(#clip0)">
                  <path
                    d="M0 50.0973V20.3097H8.18451V24.3717C10.0033 21.2124 12.7315 19.8584 16.369 19.8584C17.7331 19.8584 18.6425 19.8584 20.0066 20.7611L19.0972 28.4336C18.1878 27.9823 16.8237 27.9823 15.4596 27.9823C11.3674 27.9823 8.63921 30.6903 8.63921 36.5575V50.0973H0Z"
                    fill="#111827"
                  />
                  <path
                    d="M45.0148 20.3097H53.1994V50.0973H45.0148V46.938C42.2867 49.646 39.5585 50.5487 35.9209 50.5487C31.8287 50.5487 28.1911 49.1947 25.463 46.0354C22.7348 43.3274 21.3707 39.7168 21.3707 35.2035C21.3707 30.6903 22.7348 27.0796 25.463 24.3717C28.1911 21.6637 31.8287 19.8584 35.9209 19.8584C39.5585 19.8584 42.7414 21.2124 45.0148 23.9203V20.3097ZM31.8287 40.6195C33.1928 41.9734 35.0116 42.8761 37.285 42.8761C39.5585 42.8761 41.3773 41.9734 42.7414 40.6195C44.1055 39.2655 45.0148 37.0088 45.0148 35.2035C45.0148 32.9469 44.1055 31.1416 42.7414 29.7876C41.3773 27.9823 39.5585 27.531 37.285 27.531C35.0116 27.531 33.1928 27.9823 31.8287 29.7876C30.4646 31.1416 29.5552 32.9469 29.5552 35.2035C29.5552 37.4602 30.4646 39.2655 31.8287 40.6195Z"
                    fill="#111827"
                  />
                  <path
                    d="M92.3032 37.4602V20.3097H100.942V37.4602C100.942 41.0708 102.761 42.8761 106.399 42.8761C110.036 42.8761 111.855 40.6195 111.855 37.4602V20.3097H120.494V37.4602C120.494 46.0354 115.038 51 106.399 51C97.7595 51 92.3032 46.0354 92.3032 37.4602Z"
                    fill="#111827"
                  />
                  <path
                    d="M126.86 50.0974V20.3097H135.044V24.3717C136.409 21.6637 140.046 19.4071 144.593 19.4071C147.776 19.4071 150.504 20.3097 152.778 22.5664C155.051 24.823 155.96 27.9823 155.96 31.5929V49.646H147.321V34.3009C147.321 29.7876 145.048 27.531 141.41 27.531C137.318 27.531 135.044 30.2389 135.044 34.3009V50.0974H126.86Z"
                    fill="#111827"
                  />
                  <path
                    d="M161.417 12.1859C161.417 9.47789 163.69 7.22125 166.418 7.22125C169.147 7.22125 171.42 9.47789 171.42 12.1859C171.42 14.8938 169.147 17.1505 166.418 17.1505C163.69 17.1505 161.417 15.3451 161.417 12.1859ZM170.965 50.0974H162.326V20.3097H170.965V50.0974Z"
                    fill="#111827"
                  />
                  <path
                    d="M176.422 46.0354C176.422 43.3274 178.695 41.5221 181.423 41.5221C184.152 41.5221 185.97 43.7788 185.97 46.0354C185.97 48.7434 183.697 51 181.423 51C178.241 51 176.422 48.7434 176.422 46.0354Z"
                    fill="#111827"
                  />
                  <path
                    d="M236.442 23.0177C238.715 25.2743 240.079 28.4336 240.079 32.0443V50.0974H231.44V33.8496C231.44 29.7876 229.166 27.531 225.984 27.531C222.346 27.531 220.073 30.2389 220.073 34.3009V50.5487H211.433V33.8496C211.433 29.7876 209.16 27.531 205.977 27.531C202.339 27.531 200.066 30.2389 200.066 34.3009V50.5487H190.972V20.3097H199.157V24.3717C200.975 21.2124 204.613 19.4071 208.25 19.4071C211.888 19.4071 215.071 21.2124 216.89 24.3717C219.163 21.2124 223.255 19.4071 227.348 19.4071C231.44 19.4071 234.168 20.7611 236.442 23.0177Z"
                    fill="#111827"
                  />
                  <path
                    d="M275.545 37.9115H253.72C254.629 41.5221 257.357 43.3274 261.904 43.3274C265.087 43.3274 268.27 42.4248 271.453 40.6195L274.636 46.4867C270.998 49.1947 266.451 50.5487 261.45 50.5487C255.993 50.5487 251.901 49.1947 249.173 46.0354C246.445 42.8761 245.081 39.2655 245.081 35.2036C245.081 30.6903 246.445 27.0797 249.628 23.9204C252.356 20.7611 256.448 19.4071 260.995 19.4071C265.542 19.4071 269.18 20.7611 271.908 23.469C274.636 26.177 276 29.7876 276 34.3009C276 35.6549 275.545 36.5575 275.545 37.9115ZM253.72 32.0443H267.815C266.906 28.4336 264.633 26.6283 260.995 26.6283C257.358 26.6283 254.629 28.4336 253.72 32.0443Z"
                    fill="#111827"
                  />
                  <path
                    d="M62.2931 12.6372L67.7495 7.67257L73.6605 10.8319L85.9373 0L91.8483 5.86726L73.6605 20.3097L62.2931 12.6372Z"
                    fill="#111827"
                  />
                  <path
                    d="M74.57 27.531C77.7528 27.531 80.0263 28.8849 81.8451 31.5929L88.6655 27.9823C86.8467 23.9203 83.2092 21.2124 78.6622 19.8584L74.57 23.0177L74.1153 23.469H72.7512L68.2042 20.7611C65.9307 21.6637 64.112 22.5664 62.2932 24.3717C59.1103 27.0796 57.7462 31.1416 57.7462 35.6549C57.7462 40.1681 59.1103 43.7787 62.2932 46.938C65.0214 49.646 69.1136 51.4513 73.6606 51.4513C80.0263 51.4513 85.0279 48.292 87.7561 43.3274L80.9357 39.2655C79.5716 41.5221 76.8434 43.3274 74.1153 43.3274C71.8418 43.3274 70.023 42.4248 68.6589 41.0708C67.2948 39.7168 66.3854 37.9115 66.3854 35.6549C66.3854 33.3982 67.2948 31.5929 68.6589 30.2389C70.4777 28.4336 72.2965 27.531 74.57 27.531Z"
                    fill="#111827"
                  />
                </g>
                <defs>
                  <clipPath id="clip0">
                    <rect width="276" height="51" fill="white" />
                  </clipPath>
                </defs>
              </svg>