<svg width="120" height="25" viewBox="0 0 120 25" fill="none" xmlns="http://www.w3.org/2000/svg">
    <path d="M7.952 5.656C6.248 5.656 4.832 6.328 3.704 7.696V5.968H0.584V24.352H3.728V17.368C4.856 18.664 6.272 19.312 7.928 19.312C9.776 19.312 11.312 18.664 12.536 17.344C13.76 16.024 14.384 14.392 14.384 12.472C14.384 10.576 13.784 8.968 12.56 7.648C11.336 6.328 9.8 5.656 7.952 5.656ZM3.656 12.496C3.656 11.392 4.016 10.456 4.712 9.688C5.408 8.92 6.32 8.536 7.448 8.536C8.576 8.536 9.488 8.92 10.184 9.688C10.88 10.432 11.24 11.368 11.24 12.496C11.24 13.624 10.88 14.56 10.184 15.328C9.488 16.072 8.576 16.456 7.448 16.456C6.32 16.456 5.408 16.072 4.712 15.328C4.016 14.56 3.656 13.624 3.656 12.496ZM16.1296 12.472C16.1296 14.416 16.7776 16.048 18.0736 17.368C19.3936 18.688 21.0496 19.336 23.0896 19.336C25.1296 19.336 26.7856 18.688 28.0816 17.368C29.4016 16.048 30.0496 14.416 30.0496 12.472C30.0496 10.552 29.4016 8.944 28.0816 7.624C26.7856 6.304 25.1296 5.632 23.0896 5.632C21.0496 5.632 19.3936 6.304 18.0736 7.624C16.7776 8.944 16.1296 10.552 16.1296 12.472ZM26.9056 12.472C26.9056 13.576 26.5456 14.512 25.8016 15.28C25.0576 16.048 24.1696 16.432 23.0896 16.432C22.0096 16.432 21.1216 16.048 20.3776 15.28C19.6336 14.512 19.2736 13.576 19.2736 12.472C19.2736 11.392 19.6336 10.456 20.3776 9.688C21.1216 8.92 22.0096 8.536 23.0896 8.536C24.1696 8.536 25.0576 8.92 25.8016 9.688C26.5456 10.456 26.9056 11.392 26.9056 12.472ZM36.6356 19.336C38.1476 19.336 39.3716 18.952 40.3076 18.16C41.2436 17.368 41.6996 16.384 41.6996 15.208C41.6996 13.792 40.9556 12.688 39.4916 11.896C39.2756 11.776 38.2196 11.344 36.3476 10.6C35.6036 10.336 35.2196 9.904 35.2196 9.328C35.2196 8.632 35.8196 8.104 36.8036 8.104C37.9076 8.104 38.8916 8.56 39.7316 9.448L41.3636 7.456C40.2356 6.184 38.7476 5.536 36.8996 5.536C35.4836 5.536 34.3316 5.896 33.4676 6.616C32.6036 7.336 32.1716 8.272 32.1716 9.4C32.1716 10.888 32.8916 11.992 34.3556 12.712C34.6436 12.856 35.1956 13.096 36.0116 13.408C36.8516 13.72 37.3796 13.936 37.5956 14.056C38.2436 14.368 38.5796 14.8 38.5796 15.304C38.5796 16.072 37.7876 16.672 36.6596 16.672C35.3876 16.672 34.0196 15.976 33.1556 14.824L31.3796 16.744C32.6036 18.448 34.5236 19.336 36.6356 19.336ZM52.1519 15.784C51.4079 16.24 50.6639 16.456 49.9439 16.456C48.6719 16.456 48.0479 15.664 48.0479 14.104V8.608H52.4159V5.968H48.0479V1.36H44.9519V5.968H42.7439V8.608H44.9039V14.224C44.9039 17.56 46.4159 19.312 49.3679 19.312C50.8319 19.312 52.1039 18.952 53.1359 18.232L52.1519 15.784ZM58.5149 19V11.776H65.8109V8.656H58.5149V4.384H66.8429V1.264H55.2509V19H58.5149ZM70.7478 4.408C71.8758 4.408 72.7158 3.592 72.7158 2.44C72.7158 1.312 71.8758 0.472 70.7478 0.472C69.6198 0.472 68.7318 1.312 68.7318 2.44C68.7318 3.592 69.5958 4.408 70.7478 4.408ZM72.2838 5.968H69.1398V19H72.2838V5.968ZM79.5965 19.336C81.1085 19.336 82.3325 18.952 83.2685 18.16C84.2045 17.368 84.6605 16.384 84.6605 15.208C84.6605 13.792 83.9165 12.688 82.4525 11.896C82.2365 11.776 81.1805 11.344 79.3085 10.6C78.5645 10.336 78.1805 9.904 78.1805 9.328C78.1805 8.632 78.7805 8.104 79.7645 8.104C80.8685 8.104 81.8525 8.56 82.6925 9.448L84.3245 7.456C83.1965 6.184 81.7085 5.536 79.8605 5.536C78.4445 5.536 77.2925 5.896 76.4285 6.616C75.5645 7.336 75.1325 8.272 75.1325 9.4C75.1325 10.888 75.8525 11.992 77.3165 12.712C77.6045 12.856 78.1565 13.096 78.9725 13.408C79.8125 13.72 80.3405 13.936 80.5565 14.056C81.2045 14.368 81.5405 14.8 81.5405 15.304C81.5405 16.072 80.7485 16.672 79.6205 16.672C78.3485 16.672 76.9805 15.976 76.1165 14.824L74.3405 16.744C75.5645 18.448 77.4845 19.336 79.5965 19.336ZM99.5004 19L93.3084 11.344L99.1884 5.968H95.2044L90.1884 10.624V0.759999H87.0684V19H90.1884V14.176L91.1484 13.312L95.6124 19H99.5004ZM109.99 7.624C108.814 6.304 107.398 5.656 105.742 5.656C103.894 5.656 102.334 6.304 101.11 7.576C99.8864 8.848 99.2864 10.48 99.2864 12.424C99.2864 14.368 99.8864 16.024 101.11 17.344C102.334 18.664 103.87 19.312 105.742 19.312C107.446 19.312 108.862 18.664 109.99 17.392V19H112.966V5.968H109.99V7.624ZM110.062 12.472C110.062 13.6 109.702 14.536 108.982 15.304C108.262 16.072 107.35 16.456 106.222 16.456C105.094 16.456 104.182 16.072 103.462 15.304C102.766 14.536 102.406 13.6 102.406 12.472C102.406 11.368 102.766 10.432 103.462 9.664C104.182 8.896 105.094 8.512 106.222 8.512C107.35 8.512 108.262 8.896 108.982 9.664C109.702 10.432 110.062 11.368 110.062 12.472ZM119.274 0.759999H116.154V19H119.274V0.759999Z" fill="black"/>
    </svg>
    